<svg width="20" height="20" viewBox="0 0 20 20" fill="none" xmlns="http://www.w3.org/2000/svg">
<path fill-rule="evenodd" clip-rule="evenodd" d="M6.65943 1.65141C5.7426 1.69246 5.11675 1.83784 4.56838 2.04906V2.04906C4.00278 2.26713 3.52242 2.56046 3.04378 3.03508V3.03508C2.56513 3.51141 2.27158 3.98774 2.05033 4.55044V4.55044C1.83856 5.09433 1.69307 5.71519 1.65089 6.62595V6.62595C1.60957 7.53756 1.6001 7.83003 1.6001 10.1518V10.1518C1.6001 12.4745 1.60957 12.7652 1.65089 13.6777V13.6777C1.69307 14.5876 1.83856 15.2093 2.05033 15.7541V15.7541C2.27158 16.3159 2.56513 16.7931 3.04378 17.2677V17.2677C3.52242 17.744 4.00278 18.0357 4.56838 18.2554V18.2554C5.11675 18.4667 5.7426 18.6112 6.65943 18.6514V18.6514C7.57625 18.6933 7.86981 18.7035 10.2079 18.7035V18.7035C12.5461 18.7035 12.8396 18.6933 13.7573 18.6514V18.6514C14.6741 18.6112 15.2991 18.4667 15.8466 18.2554V18.2554C16.4139 18.0357 16.8934 17.744 17.3721 17.2677V17.2677C17.8499 16.7931 18.1443 16.3159 18.3647 15.7541V15.7541C18.5773 15.2093 18.7228 14.5876 18.765 13.6777V13.6777C18.8072 12.7652 18.8166 12.4745 18.8166 10.1518V10.1518C18.8166 7.83003 18.8072 7.53756 18.765 6.62595V6.62595C18.7228 5.71519 18.5773 5.09433 18.3647 4.55044V4.55044C18.1443 3.98774 17.8499 3.51141 17.3721 3.03508V3.03508C16.8934 2.56046 16.4139 2.26713 15.8466 2.04906V2.04906C15.2991 1.83784 14.6741 1.69246 13.7573 1.65141V1.65141C12.8396 1.61036 12.5461 1.6001 10.2079 1.6001V1.6001C7.86981 1.6001 7.57625 1.61036 6.65943 1.65141V1.65141ZM14.5123 5.02004C14.5123 4.54884 14.8971 4.16572 15.3732 4.16572V4.16572C15.8484 4.16572 16.2341 4.54884 16.2341 5.02004V5.02004C16.2341 5.49381 15.8484 5.87607 15.3732 5.87607V5.87607C14.8971 5.87607 14.5123 5.49381 14.5123 5.02004V5.02004ZM5.90361 10.1517C5.90361 7.79061 7.83024 5.87588 10.208 5.87588V5.87588C12.5848 5.87588 14.5123 7.79061 14.5123 10.1517V10.1517C14.5123 12.5137 12.5848 14.4276 10.208 14.4276V14.4276C7.83024 14.4276 5.90361 12.5137 5.90361 10.1517V10.1517ZM7.62534 10.1519C7.62534 11.5698 8.78149 12.7166 10.208 12.7166V12.7166C11.6335 12.7166 12.7906 11.5698 12.7906 10.1519V10.1519C12.7906 8.73492 11.6335 7.58643 10.208 7.58643V7.58643C8.78149 7.58643 7.62534 8.73492 7.62534 10.1519V10.1519Z" fill="#4F4F4F"/>
</svg>
