<svg width="20" height="20" viewBox="0 0 20 20" fill="none" xmlns="http://www.w3.org/2000/svg">
<path fill-rule="evenodd" clip-rule="evenodd" d="M7.92178 4.7998C7.65835 4.7998 7.49307 4.95459 7.49307 5.16496V5.16496C7.49307 5.69603 8.30315 5.81575 8.30315 7.25244V7.25244V10.2182C8.30315 10.8151 8.26957 11.0468 7.98893 11.0468V11.0468C7.24514 11.0468 5.47691 8.47876 4.48605 5.56262V5.56262C4.28719 4.96571 4.07197 4.7998 3.51068 4.7998V4.7998H1.3456C1.03138 4.7998 0.799805 5.01531 0.799805 5.33087V5.33087C0.799805 5.91067 1.47731 8.5942 4.13826 12.1893V12.1893C5.92284 14.6095 8.26957 15.9179 10.3847 15.9179V15.9179C11.6743 15.9179 11.9877 15.7024 11.9877 15.1551V15.1551V13.3002C11.9877 12.8359 12.1693 12.6375 12.4345 12.6375V12.6375C12.7315 12.6375 13.2566 12.7341 14.4833 13.9459V13.9459C15.9382 15.3381 16.0372 15.9179 16.8301 15.9179V15.9179H19.2603C19.5082 15.9179 19.7389 15.8016 19.7389 15.3877V15.3877C19.7389 14.8404 19.0279 13.8638 17.938 12.7033V12.7033C17.4912 12.1073 16.7638 11.4607 16.5331 11.1631V11.1631C16.2016 10.8151 16.3015 10.6158 16.5331 10.2515V10.2515C16.5331 10.2515 19.0279 6.72223 19.2758 5.56262V5.56262C19.3593 5.14872 19.1768 4.91611 18.7472 4.91611V4.91611H16.5821C16.0863 4.91611 15.9046 5.13161 15.7557 5.44632V5.44632C15.7557 5.44632 14.5858 7.94769 13.1619 9.52207V9.52207C12.7039 10.0317 12.4723 10.1857 12.2192 10.1857V10.1857C12.0161 10.1857 11.9222 10.0155 11.9222 9.55627V9.55627V5.53012C11.9222 4.96571 11.856 4.7998 11.3937 4.7998V4.7998H7.92178Z" fill="#4F4F4F"/>
</svg>
